name C:\flash-running\Simulations\OCP\..\results\trackingSim\trackingSim_10-Nov-2020_kinematics.mot
datacolumns 32
datarows 10
range 1.28400000 1.35168000
endheader
time	pelvis_tilt	pelvis_list	pelvis_rotation	pelvis_tx	pelvis_ty	pelvis_tz	hip_flexion_l	hip_adduction_l	hip_rotation_l	hip_flexion_r	hip_adduction_r	hip_rotation_r	knee_angle_l	knee_angle_r	ankle_angle_l	ankle_angle_r	subtalar_angle_l	subtalar_angle_r	lumbar_extension	lumbar_bending	lumbar_rotation	arm_flex_l	arm_add_l	arm_rot_l	arm_flex_r	arm_add_r	arm_rot_r	elbow_flex_l	elbow_flex_r	pro_sup_l	pro_sup_r	
          1.28400000	          4.41141580	          3.43884415	          6.94614302	         -0.79606668	          0.95183232	          0.22564677	         17.11197795	          8.13766749	         -0.79248588	         -5.74507395	         -1.89436415	         -5.46169843	        -31.81471955	        -57.16100864	          6.34955080	         -9.81151935	          8.99843513	        -13.50623443	        -14.50325672	         -5.22467512	          4.37672421	        -43.55872065	        -27.98343049	          3.37610004	        -25.23525487	        -26.68507793	        -10.30367164	         85.04110417	        127.31074249	         86.51662706	         86.51662706	
          1.29152000	          4.73524732	          3.93567276	          6.79524918	         -0.77744453	          0.94713789	          0.22562786	         16.64849091	          8.64730437	         -0.76607494	         -3.90919964	         -2.81750444	         -5.52062701	        -34.21966818	        -60.69748166	          9.03670296	         -9.09402517	          9.03582269	        -14.15006030	        -15.29533726	         -5.82119856	          3.68677997	        -41.97295524	        -28.63453795	          3.64406147	        -25.53541946	        -26.43060977	         -9.71271768	         85.18638374	        124.87805308	         86.51662706	         86.51662706	
          1.29904000	          5.05077183	          4.70244851	          6.65209291	         -0.75837083	          0.94261483	          0.22538001	         15.93323330	          9.48728209	         -0.52453990	         -2.14213644	         -4.08233282	         -5.57206144	        -36.16380810	        -64.07446316	         11.08956822	         -8.61482365	          8.99805610	        -14.70689924	        -16.01731228	         -6.70394997	          2.86381872	        -40.51668582	        -29.02509437	          4.04801728	        -26.42136614	        -26.03279954	         -9.07122210	         84.22898308	        121.33770524	         86.51662706	         86.51662706	
          1.30656000	          5.34656313	          5.46696535	          6.54942198	         -0.73956582	          0.93828014	          0.22509133	         15.11647107	         10.31068039	         -0.39861226	         -0.30371347	         -5.36678522	         -5.61303428	        -37.83097332	        -67.38804009	         12.94593250	         -7.90008820	          8.96521219	        -15.03911956	        -16.75540534	         -7.55282628	          2.02160344	        -38.82241913	        -29.35118232	          4.46632426	        -27.46545003	        -25.47146300	         -8.32806188	         83.25159937	        117.59809566	         86.51662706	         86.51662706	
          1.31408000	          5.42284212	          5.88237455	          6.52392544	         -0.72164494	          0.93376049	          0.22485513	         14.37445961	         10.73009780	         -0.37201389	          1.95736449	         -6.29584952	         -5.63815964	        -39.12273538	        -70.71231266	         14.89597638	         -6.98319006	          9.16331774	        -15.08217377	        -17.34356180	         -7.98321674	          1.22409022	        -36.71877444	        -29.81730631	          4.79950538	        -28.09518090	        -25.04387329	         -7.66807289	         83.34194424	        114.74693741	         86.51662706	         86.51662706	
          1.32160000	          5.44025514	          6.09967386	          6.53494777	         -0.70454972	          0.92945065	          0.22463466	         13.48949161	         10.90464653	         -0.27794703	          4.43454448	         -7.03038428	         -5.64858889	        -39.96493271	        -73.98863156	         16.81219072	         -6.32698980	          9.58237539	        -14.95305003	        -17.97291324	         -8.14601457	          0.44988321	        -33.98819278	        -30.21750000	          5.10508494	        -28.17631655	        -24.82689257	         -7.15567500	         84.43250046	        112.75434105	         86.51662706	         86.51662706	
          1.32912000	          5.49390851	          6.29254039	          6.55717308	         -0.68757256	          0.92572885	          0.22455151	         12.35260239	         10.98708571	         -0.24988111	          6.88605639	         -7.72259224	         -5.63379911	        -40.40803205	        -77.09538640	         18.58642516	         -5.84675559	         10.09951223	        -14.62378092	        -18.65291630	         -8.27660577	         -0.33583087	        -30.83012931	        -30.45095029	          5.38481954	        -28.12003169	        -24.65970146	         -6.60784913	         85.79588109	        110.99996190	         86.51662706	         86.51662706	
          1.33664000	          5.45230500	          6.44267569	          6.63574023	         -0.66998778	          0.92260083	          0.22473445	         11.08327129	         10.97676415	         -0.23842288	          9.32827884	         -8.31394026	         -5.60969199	        -40.49240068	        -79.89312924	         20.22252740	         -5.58030341	         10.65707315	        -14.11932745	        -19.11646227	         -8.42761914	         -1.15549281	        -27.70279299	        -30.64080781	          5.62952870	        -28.44944245	        -24.40369141	         -6.01481161	         86.67111845	        108.62987570	         86.51662706	         86.51662706	
          1.34416000	          5.40941571	          6.54548977	          6.75329530	         -0.65168173	          0.92024001	          0.22521018	          9.59489350	         10.86801262	         -0.17230797	         11.61553255	         -8.77613482	         -5.58113310	        -40.24212455	        -82.34275615	         21.68779796	         -5.19833606	         11.24369998	        -13.42077724	        -19.46627624	         -8.58490693	         -2.02386525	        -24.99903846	        -30.87290124	          5.81311712	        -29.25743549	        -24.07058380	         -5.42933660	         87.29935176	        105.76449330	         86.51662706	         86.51662706	
          1.35168000	          5.57115314	          6.62911231	          6.82879650	         -0.63276482	          0.91889304	          0.22591753	          7.64382455	         10.68986797	          0.05241767	         13.51171894	         -9.13314224	         -5.53885271	        -39.58972717	        -84.42031131	         22.94939462	         -4.35754275	         11.86449677	        -12.50915893	        -19.95006894	         -8.72603068	         -2.92188388	        -22.79130613	        -31.10971848	          5.93288705	        -30.32151841	        -23.77037006	         -4.91475422	         88.18612105	        103.23103131	         86.51662706	         86.51662706	
